<svg xmlns="http://www.w3.org/2000/svg" width="53" height="53" viewBox="0 0 53 53" fill="none">
  <g clip-path="url(#clip0_271_2155)">
    <path d="M26.4999 6.625C28.1514 6.62508 29.7698 7.08815 31.1714 7.96163C32.573 8.83511 33.7017 10.084 34.4293 11.5666C35.1569 13.0492 35.4543 14.7061 35.2878 16.3491C35.1212 17.9922 34.4974 19.5557 33.4871 20.8621C34.9572 20.1021 36.6112 19.7704 38.2607 19.9048C39.9101 20.0391 41.4886 20.6341 42.8164 21.6219C44.1441 22.6098 45.1677 23.9508 45.7703 25.492C46.373 27.0333 46.5306 28.7129 46.2252 30.3394C45.9197 31.9658 45.1635 33.4738 44.0427 34.6914C42.9219 35.909 41.4816 36.7872 39.8859 37.2261C38.2902 37.6649 36.6034 37.6466 35.0176 37.1734C33.4318 36.7001 32.0108 35.7909 30.9166 34.5494V37.5417L33.1249 46.375H19.8749L22.0833 37.5417V34.5494C20.9889 35.7906 19.5679 36.6994 17.9821 37.1723C16.3964 37.6453 14.7097 37.6632 13.1142 37.2242C11.5187 36.7853 10.0787 35.9069 8.95805 34.6894C7.83744 33.4718 7.08138 31.9639 6.77599 30.3376C6.47061 28.7113 6.6282 27.0318 7.23079 25.4907C7.83339 23.9495 8.85677 22.6087 10.1843 21.6208C11.5119 20.633 13.0902 20.0379 14.7395 19.9033C16.3888 19.7688 18.0427 20.1003 19.5128 20.8599C18.5032 19.5536 17.88 17.9906 17.7137 16.348C17.5474 14.7055 17.8448 13.0492 18.572 11.5671C19.2993 10.085 20.4273 8.83635 21.8282 7.96281C23.2291 7.08928 24.8468 6.62582 26.4977 6.625H26.4999Z" stroke="#9678D3" stroke-width="3" stroke-linecap="round" stroke-linejoin="round"/>
    <circle cx="32" cy="46" r="5" fill="#9678D3"/>
  </g>
  <defs>
    <clipPath id="clip0_271_2155">
      <rect width="53" height="53" fill="white"/>
    </clipPath>
  </defs>
</svg>