<svg xmlns="http://www.w3.org/2000/svg" width="53" height="53" viewBox="0 0 53 53" fill="none">
  <g clip-path="url(#clip0_271_2150)">
    <path d="M43.8906 13.8462C45.4365 14.7251 46.386 16.3703 46.375 18.148V34.2335C46.375 36.02 45.3967 37.6675 43.8177 38.5353L28.9115 47.9649C28.1725 48.3706 27.3431 48.5834 26.5 48.5834C25.6569 48.5834 24.8275 48.3706 24.0885 47.9649L9.18225 38.5353C8.4097 38.1131 7.76477 37.4911 7.31491 36.7344C6.86504 35.9776 6.62677 35.1139 6.625 34.2335V18.1458C6.625 16.3592 7.60329 14.714 9.18225 13.8462L24.0885 5.05699C24.8494 4.63749 25.704 4.41748 26.5729 4.41748C27.4417 4.41748 28.2964 4.63749 29.0572 5.05699L43.9635 13.8462H43.8906Z" stroke="#9678D3" stroke-width="3" stroke-linecap="round" stroke-linejoin="round"/>
    <path d="M26.5 35.3333V35.3553" stroke="#9678D3" stroke-width="3" stroke-linecap="round" stroke-linejoin="round"/>
    <path d="M26.5 28.7083C27.4932 28.7113 28.4584 28.3794 29.2398 27.7663C30.0211 27.1532 30.573 26.2946 30.8064 25.3292C31.0397 24.3638 30.9408 23.3479 30.5256 22.4456C30.1105 21.5433 29.4034 20.8073 28.5184 20.3564C27.6399 19.9063 26.6349 19.7668 25.667 19.9605C24.6991 20.1541 23.8252 20.6696 23.1875 21.423" stroke="#9678D3" stroke-width="3" stroke-linecap="round" stroke-linejoin="round"/>
    <circle cx="46" cy="15" r="5" fill="#9678D3"/>
  </g>
  <defs>
    <clipPath id="clip0_271_2150">
      <rect width="53" height="53" fill="white"/>
    </clipPath>
  </defs>
</svg>