<svg width="56" height="53" viewBox="0 0 56 53" fill="none" xmlns="http://www.w3.org/2000/svg">
<g clip-path="url(#clip0_1416_359)">
<path d="M6.625 46.375H46.375" stroke="#9678D3" stroke-width="3" stroke-linecap="round" stroke-linejoin="round"/>
<path d="M11.0417 46.375V11.0417C11.0417 9.87029 11.5071 8.7469 12.3354 7.91861C13.1636 7.09033 14.287 6.625 15.4584 6.625H37.5417C38.7131 6.625 39.8365 7.09033 40.6648 7.91861C41.4931 8.7469 41.9584 9.87029 41.9584 11.0417V46.375" stroke="#9678D3" stroke-width="3" stroke-linecap="round" stroke-linejoin="round"/>
<path d="M19.875 46.375V37.5417C19.875 36.3703 20.3403 35.2469 21.1686 34.4186C21.9969 33.5903 23.1203 33.125 24.2917 33.125H28.7083C29.8797 33.125 31.0031 33.5903 31.8314 34.4186C32.6597 35.2469 33.125 36.3703 33.125 37.5417V46.375" stroke="#9678D3" stroke-width="3" stroke-linecap="round" stroke-linejoin="round"/>
<path d="M22.0833 19.875H30.9166" stroke="#9678D3" stroke-width="3" stroke-linecap="round" stroke-linejoin="round"/>
<path d="M26.5 15.4583V24.2916" stroke="#9678D3" stroke-width="3" stroke-linecap="round" stroke-linejoin="round"/>
</g>
<circle cx="51" cy="46" r="5" fill="#9678D3"/>
<defs>
<clipPath id="clip0_1416_359">
<rect width="53" height="53" fill="white"/>
</clipPath>
</defs>
</svg>
