<svg width="53" height="53" viewBox="0 0 53 53" fill="none" xmlns="http://www.w3.org/2000/svg">
<g clip-path="url(#clip0_271_2138)">
<path d="M8.83333 24.2917H44.1667C44.7524 24.2917 45.3141 24.5244 45.7282 24.9386C46.1423 25.3527 46.375 25.9144 46.375 26.5001V27.6042C46.375 30.9167 40.8166 39.9113 37.5417 41.9584V44.1667C37.5417 44.7524 37.309 45.3141 36.8949 45.7283C36.4807 46.1424 35.919 46.3751 35.3333 46.3751H17.6667C17.081 46.3751 16.5193 46.1424 16.1051 45.7283C15.691 45.3141 15.4583 44.7524 15.4583 44.1667V41.9584C11.7329 39.6308 6.625 30.9167 6.625 27.6042V26.5001C6.625 25.9144 6.85766 25.3527 7.27181 24.9386C7.68595 24.5244 8.24765 24.2917 8.83333 24.2917Z" stroke="#9678D3" stroke-width="3" stroke-linecap="round" stroke-linejoin="round"/>
<path d="M24.2917 11.0417H44.1667" stroke="#9678D3" stroke-width="3" stroke-linecap="round" stroke-linejoin="round"/>
<circle cx="19" cy="11" r="5" fill="#9678D3"/>
</g>
<defs>
<clipPath id="clip0_271_2138">
<rect width="53" height="53" fill="white"/>
</clipPath>
</defs>
</svg>
