<svg xmlns="http://www.w3.org/2000/svg" width="25" height="23" viewBox="0 0 25 23" fill="none">
  <path d="M0 23V2.12963C0 1.5144 0.203544 1.00566 0.610632 0.603395C1.01772 0.201132 1.53257 0 2.15517 0H22.8448C23.4674 0 23.9823 0.201132 24.3894 0.603395C24.7965 1.00566 25 1.5144 25 2.12963V16.8951C25 17.5103 24.7965 18.019 24.3894 18.4213C23.9823 18.8236 23.4674 19.0247 22.8448 19.0247H4.02299L0 23ZM3.59195 18.0309H22.8448C23.1322 18.0309 23.3956 17.9126 23.6351 17.6759C23.8745 17.4393 23.9943 17.179 23.9943 16.8951V2.12963C23.9943 1.84568 23.8745 1.58539 23.6351 1.34877C23.3956 1.11214 23.1322 0.993827 22.8448 0.993827H2.15517C1.86782 0.993827 1.60441 1.11214 1.36494 1.34877C1.12548 1.58539 1.00575 1.84568 1.00575 2.12963V20.5864L3.59195 18.0309Z" fill="#464646"/>
</svg>