<svg xmlns="http://www.w3.org/2000/svg" width="16" height="12" viewBox="0 0 16 12" fill="none">
  <path d="M6.44434 6.00004C6.44434 6.44207 6.60822 6.86599 6.89995 7.17855C7.19167 7.49111 7.58733 7.66671 7.99989 7.66671C8.41245 7.66671 8.80811 7.49111 9.09984 7.17855C9.39156 6.86599 9.55545 6.44207 9.55545 6.00004C9.55545 5.55801 9.39156 5.13409 9.09984 4.82153C8.80811 4.50897 8.41245 4.33337 7.99989 4.33337C7.58733 4.33337 7.19167 4.50897 6.89995 4.82153C6.60822 5.13409 6.44434 5.55801 6.44434 6.00004Z" stroke="#909090" stroke-linecap="round" stroke-linejoin="round"/>
  <path d="M15 6C13.1333 9.33333 10.8 11 8 11C5.2 11 2.86667 9.33333 1 6C2.86667 2.66667 5.2 1 8 1C10.8 1 13.1333 2.66667 15 6Z" stroke="#909090" stroke-linecap="round" stroke-linejoin="round"/>
</svg>