<svg xmlns="http://www.w3.org/2000/svg" width="9" height="12" viewBox="0 0 9 12" fill="none">
  <path d="M3.41675 1.08336C3.41675 0.606695 3.98875 0.362403 4.33325 0.692278C5.39383 1.70844 6.01025 3.93957 5.28117 5.63228L5.23783 5.72653L5.24433 5.72815C5.58287 5.80019 5.89596 5.49524 6.49179 4.55111L6.56762 4.42978C6.61157 4.35903 6.67124 4.29937 6.742 4.25544C6.81276 4.21151 6.89269 4.18448 6.97559 4.17646C7.05849 4.16844 7.14212 4.17965 7.21999 4.20921C7.29785 4.23877 7.36785 4.28589 7.42454 4.3469C8.14712 5.12419 8.83342 6.71778 8.83342 7.74315C8.83342 10.0534 6.88829 11.9167 4.50008 11.9167C2.11187 11.9167 0.166748 10.0534 0.166748 7.74261C0.166748 6.52278 0.720331 5.18811 1.59241 4.32957L1.92012 4.01053C2.05066 3.88269 2.15521 3.77761 2.25487 3.67253C3.02946 2.85353 3.41675 2.08869 3.41675 1.08336Z" fill="#B1B1B1"/>
</svg>