<svg xmlns="http://www.w3.org/2000/svg" width="21" height="20" viewBox="0 0 21 20" fill="none">
  <path d="M15.2192 2.99605L15.2181 2.99865L13.6041 6.58246L13.2864 7.28778L14.06 7.28778L18.7023 7.28778L18.7023 7.28786L18.7115 7.28769C19.0092 7.28219 19.3032 7.35142 19.5663 7.48875C19.8291 7.62592 20.0524 7.82648 20.2157 8.0715C20.3793 8.31953 20.4757 8.60484 20.496 8.90003C20.5163 9.19551 20.4596 9.49134 20.3313 9.75912L20.3312 9.75911L20.3289 9.76421C19.2191 12.1481 17.2115 16.4974 16.5362 18.34C16.4093 18.6787 16.1811 18.9715 15.8815 19.179L16.1657 19.5895L15.8815 19.179C15.5815 19.3867 15.2244 19.4989 14.8579 19.5L2.29994 19.5C1.81932 19.4923 1.36164 19.2976 1.02525 18.9589C0.688211 18.6195 0.499952 18.1629 0.500002 17.6879L0.500002 17.6879L0.500001 11.891C0.500001 11.4204 0.688327 10.9682 1.02477 10.6343C1.36134 10.3002 1.81861 10.1119 2.29619 10.1119L2.49244 10.1119L2.6363 9.9784L12.3494 0.964841C12.6867 0.666421 13.1233 0.500668 13.5765 0.500001C13.9559 0.502087 14.3259 0.614932 14.6405 0.823989C14.974 1.06457 15.2133 1.4112 15.319 1.80522C15.4253 2.20158 15.3902 2.62227 15.2192 2.99605Z" stroke="#464646"/>
</svg>
