<svg xmlns="http://www.w3.org/2000/svg" width="3" height="16" viewBox="0 0 3 16" fill="none">
  <path d="M1.5 16C1.0875 16 0.734417 15.8383 0.44075 15.5149C0.146917 15.1918 0 14.8032 0 14.3492C0 13.8952 0.146917 13.5066 0.44075 13.1832C0.734417 12.86 1.0875 12.6984 1.5 12.6984C1.9125 12.6984 2.26558 12.86 2.55925 13.1832C2.85308 13.5066 3 13.8952 3 14.3492C3 14.8032 2.85308 15.1918 2.55925 15.5149C2.26558 15.8383 1.9125 16 1.5 16ZM1.5 9.65079C1.0875 9.65079 0.734417 9.4891 0.44075 9.16573C0.146917 8.84254 0 8.45397 0 8C0 7.54603 0.146917 7.15746 0.44075 6.83427C0.734417 6.5109 1.0875 6.34921 1.5 6.34921C1.9125 6.34921 2.26558 6.5109 2.55925 6.83427C2.85308 7.15746 3 7.54603 3 8C3 8.45397 2.85308 8.84254 2.55925 9.16573C2.26558 9.4891 1.9125 9.65079 1.5 9.65079ZM1.5 3.30158C1.0875 3.30158 0.734417 3.13998 0.44075 2.8168C0.146917 2.49343 0 2.10476 0 1.65079C0 1.19682 0.146917 0.808245 0.44075 0.485057C0.734417 0.161686 1.0875 0 1.5 0C1.9125 0 2.26558 0.161686 2.55925 0.485057C2.85308 0.808245 3 1.19682 3 1.65079C3 2.10476 2.85308 2.49343 2.55925 2.8168C2.26558 3.13998 1.9125 3.30158 1.5 3.30158Z" fill="#464646"/>
</svg>