<svg xmlns="http://www.w3.org/2000/svg" width="16" height="18" viewBox="0 0 16 18" fill="none">
  <path d="M15 0C15.2449 3.23106e-05 15.4813 0.089956 15.6644 0.252715C15.8474 0.415474 15.9643 0.639749 15.993 0.883L16 1V10C16 10.2449 15.91 10.4813 15.7473 10.6644C15.5845 10.8474 15.3603 10.9643 15.117 10.993L15 11H2V17C1.99997 17.2449 1.91004 17.4813 1.74728 17.6644C1.58453 17.8474 1.36025 17.9643 1.117 17.993L1 18C0.755067 18 0.518663 17.91 0.335628 17.7473C0.152593 17.5845 0.0356572 17.3603 0.00699997 17.117L0 17V1C3.23106e-05 0.755067 0.089956 0.518663 0.252715 0.335628C0.415474 0.152593 0.639749 0.0356572 0.883 0.00699997L1 0H15Z" fill="#EA3729"/>
</svg>
