<svg xmlns="http://www.w3.org/2000/svg" width="82" height="82" viewBox="0 0 82 82" fill="none">
  <g clip-path="url(#clip0_589_4822)">
    <path d="M34.834 19.2916L47.1365 19.2916C48.049 19.2915 48.9526 19.4712 49.7957 19.8204C50.6388 20.1696 51.4049 20.6814 52.0501 21.3267C52.6954 21.9719 53.2072 22.738 53.5564 23.5811C53.9056 24.4242 54.0853 25.3278 54.0852 26.2403V35.2673C54.0853 36.1799 53.9056 37.0835 53.5564 37.9266C53.2072 38.7697 52.6954 39.5357 52.0501 40.181C51.4049 40.8262 50.6388 41.3381 49.7957 41.6873C48.9526 42.0364 48.049 42.2161 47.1365 42.2161H46.1084L46.1084 64.6146C46.1084 65.7494 45.7087 66.8479 44.9796 67.7175L44.6944 68.03L42.693 70.0315C42.2747 70.4497 41.7174 70.6998 41.1269 70.7344C40.5363 70.7691 39.9536 70.5858 39.4893 70.2193L39.2775 70.0315L37.2761 68.03C36.4744 67.2279 35.9805 66.1694 35.8809 65.0398L35.8621 64.6146L35.8621 63.2006L39.2775 59.7851L35.8621 56.3697L39.2775 52.9542L35.8621 49.5388L35.8621 42.2161H34.8341C33.9215 42.2161 33.0179 42.0364 32.1748 41.6873C31.3317 41.3381 30.5657 40.8262 29.9204 40.181C29.2751 39.5357 28.7633 38.7697 28.4141 37.9266C28.0649 37.0835 27.8853 36.1799 27.8853 35.2673L27.8853 26.2403C27.8853 25.3278 28.0649 24.4242 28.4141 23.5811C28.7633 22.738 29.2751 21.9719 29.9204 21.3267C30.5657 20.6814 31.3317 20.1696 32.1748 19.8204C33.0179 19.4712 33.9215 19.2915 34.834 19.2916Z" stroke="#9678D3" stroke-width="3" stroke-linecap="round" stroke-linejoin="round"/>
    <path d="M40.9854 30.7534L41.0022 30.7365" stroke="#9678D3" stroke-width="3" stroke-linecap="round" stroke-linejoin="round"/>
  </g>
  <defs>
    <clipPath id="clip0_589_4822">
      <rect width="57.962" height="57.962" fill="white" transform="translate(0 41) rotate(-45)"/>
    </clipPath>
  </defs>
</svg>