<svg xmlns="http://www.w3.org/2000/svg" width="20" height="20" viewBox="0 0 20 20" fill="none">
  <g clip-path="url(#clip0_569_2079)">
    <path d="M2.5 16.6667H17.5V10C17.5 9.33696 17.2366 8.70107 16.7678 8.23223C16.2989 7.76339 15.663 7.5 15 7.5H5C4.33696 7.5 3.70107 7.76339 3.23223 8.23223C2.76339 8.70107 2.5 9.33696 2.5 10V16.6667Z" stroke="#9678D3" stroke-linecap="round" stroke-linejoin="round"/>
    <path d="M2.5 12.3359C2.76 12.4484 3.045 12.5059 3.33333 12.5001C3.65791 12.5069 3.97927 12.4346 4.26965 12.2894C4.56002 12.1442 4.81069 11.9305 5 11.6668C5.18931 11.403 5.43998 11.1893 5.73035 11.0442C6.02073 10.899 6.34209 10.8266 6.66667 10.8334C6.99125 10.8266 7.3126 10.899 7.60298 11.0442C7.89336 11.1893 8.14402 11.403 8.33333 11.6668C8.52264 11.9305 8.77331 12.1442 9.06369 12.2894C9.35406 12.4346 9.67542 12.5069 10 12.5001C10.3246 12.5069 10.6459 12.4346 10.9363 12.2894C11.2267 12.1442 11.4774 11.9305 11.6667 11.6668C11.856 11.403 12.1066 11.1893 12.397 11.0442C12.6874 10.899 13.0088 10.8266 13.3333 10.8334C13.6579 10.8266 13.9793 10.899 14.2696 11.0442C14.56 11.1893 14.8107 11.403 15 11.6668C15.1893 11.9305 15.44 12.1442 15.7304 12.2894C16.0207 12.4346 16.3421 12.5069 16.6667 12.5001C16.9583 12.5059 17.2433 12.4484 17.5 12.3359" stroke="#9678D3" stroke-linecap="round" stroke-linejoin="round"/>
    <path d="M10 3.3335L11.2209 4.6985C11.4387 4.93269 11.5846 5.22463 11.641 5.53945C11.6975 5.85428 11.6622 6.17871 11.5393 6.47401C11.4164 6.76931 11.2111 7.02301 10.948 7.20484C10.6848 7.38666 10.3749 7.48892 10.0552 7.49942C9.73555 7.50991 9.4196 7.4282 9.14509 7.26403C8.87059 7.09987 8.64912 6.86018 8.50712 6.57357C8.36512 6.28697 8.30858 5.96556 8.34427 5.64771C8.37995 5.32985 8.50634 5.02898 8.70836 4.781L10 3.3335Z" stroke="#9678D3" stroke-linecap="round" stroke-linejoin="round"/>
  </g>
  <defs>
    <clipPath id="clip0_569_2079">
      <rect width="20" height="20" fill="white"/>
    </clipPath>
  </defs>
</svg>