<svg xmlns="http://www.w3.org/2000/svg" width="22" height="22" viewBox="0 0 22 22" fill="none">
  <g clip-path="url(#clip0_537_2441)">
    <path d="M20.1667 6.9071V15.5834C20.1667 16.2848 19.8987 16.9597 19.4175 17.4701C18.9363 17.9804 18.2782 18.2876 17.578 18.3288L17.4167 18.3334H4.58334C3.8819 18.3334 3.20695 18.0654 2.6966 17.5842C2.18625 17.103 1.87908 16.4449 1.83793 15.7447L1.83334 15.5834V6.9071L10.4913 12.6794L10.5976 12.7399C10.7229 12.8011 10.8605 12.8329 11 12.8329C11.1395 12.8329 11.2771 12.8011 11.4024 12.7399L11.5088 12.6794L20.1667 6.9071Z" fill="#222222"/>
    <path d="M17.4167 3.66663C18.4067 3.66663 19.2747 4.18913 19.7587 4.97471L11 10.8139L2.24124 4.97471C2.47108 4.60141 2.78685 4.28849 3.16222 4.06206C3.53759 3.83563 3.96167 3.70224 4.39907 3.67304L4.58332 3.66663H17.4167Z" fill="#222222"/>
  </g>
  <defs>
    <clipPath id="clip0_537_2441">
      <rect width="22" height="22" fill="white"/>
    </clipPath>
  </defs>
</svg>