<svg xmlns="http://www.w3.org/2000/svg" width="44" height="44" viewBox="0 0 44 44" fill="none">
  <g clip-path="url(#clip0_576_3401)">
    <path d="M27.5 14.6665H27.5192" stroke="#9678D3" stroke-width="2" stroke-linecap="round" stroke-linejoin="round"/>
    <path d="M22.9167 38.5H11C9.54131 38.5 8.14236 37.9205 7.11091 36.8891C6.07946 35.8576 5.5 34.4587 5.5 33V11C5.5 9.54131 6.07946 8.14236 7.11091 7.11091C8.14236 6.07946 9.54131 5.5 11 5.5H33C34.4587 5.5 35.8576 6.07946 36.8891 7.11091C37.9205 8.14236 38.5 9.54131 38.5 11V22.9167" stroke="#9678D3" stroke-width="2" stroke-linecap="round" stroke-linejoin="round"/>
    <path d="M5.5 29.3335L14.6667 20.1668C16.368 18.5297 18.4653 18.5297 20.1667 20.1668L26.5833 26.5835" stroke="#9678D3" stroke-width="2" stroke-linecap="round" stroke-linejoin="round"/>
    <path d="M25.6667 25.6668L27.5001 23.8335C28.7449 22.6363 30.2006 22.3136 31.5591 22.8691" stroke="#9678D3" stroke-width="2" stroke-linecap="round" stroke-linejoin="round"/>
    <path d="M34.8333 40.3335V29.3335" stroke="#9678D3" stroke-width="2" stroke-linecap="round" stroke-linejoin="round"/>
    <path d="M40.3333 34.8335L34.8333 29.3335L29.3333 34.8335" stroke="#9678D3" stroke-width="2" stroke-linecap="round" stroke-linejoin="round"/>
  </g>
  <defs>
    <clipPath id="clip0_576_3401">
      <rect width="44" height="44" fill="white"/>
    </clipPath>
  </defs>
</svg>