<svg xmlns="http://www.w3.org/2000/svg" width="15" height="16" viewBox="0 0 15 16" fill="none">
  <path d="M13.6565 3.98877C14.1815 4.26737 14.504 4.78888 14.5002 5.35239V10.4513C14.5002 11.0176 14.168 11.5398 13.6317 11.8149L8.56913 14.804C8.31815 14.9326 8.03645 15 7.75012 15C7.46379 15 7.18209 14.9326 6.9311 14.804L1.86852 11.8149C1.60614 11.6811 1.3871 11.4839 1.23431 11.244C1.08153 11.0041 1.0006 10.7303 1 10.4513V5.35169C1 4.78538 1.33226 4.26387 1.86852 3.98877L6.9311 1.20272C7.18951 1.06974 7.47979 1 7.77487 1C8.06995 1 8.36023 1.06974 8.61863 1.20272L13.6812 3.98877H13.6565Z" stroke="#9678D3" stroke-linecap="round" stroke-linejoin="round"/>
  <path d="M7.75012 5.19971V7.99976" stroke="#9678D3" stroke-linecap="round" stroke-linejoin="round"/>
  <path d="M7.75012 10.7998H7.7579" stroke="#9678D3" stroke-linecap="round" stroke-linejoin="round"/>
</svg>