<svg xmlns="http://www.w3.org/2000/svg" width="20" height="20" viewBox="0 0 20 20" fill="none">
  <g clip-path="url(#clip0_576_3083)">
    <path d="M13.7666 5.83325H4.99998C4.55795 5.83325 4.13403 6.00885 3.82147 6.32141C3.50891 6.63397 3.33331 7.05789 3.33331 7.49992V12.4999C3.33331 12.9419 3.50891 13.3659 3.82147 13.6784C4.13403 13.991 4.55795 14.1666 4.99998 14.1666H13.7666C13.8915 14.1665 14.0147 14.1384 14.1272 14.0843C14.2397 14.0302 14.3386 13.9515 14.4166 13.8541L17.5 9.99992L14.4166 6.14575C14.3386 6.0483 14.2397 5.96963 14.1272 5.91554C14.0147 5.86145 13.8915 5.83333 13.7666 5.83325Z" stroke="#9678D3" stroke-linecap="round" stroke-linejoin="round"/>
  </g>
  <defs>
    <clipPath id="clip0_576_3083">
      <rect width="20" height="20" fill="white"/>
    </clipPath>
  </defs>
</svg>