<svg xmlns="http://www.w3.org/2000/svg" width="28" height="28" viewBox="0 0 28 28" fill="none">
  <g clip-path="url(#clip0_576_3086)">
    <path d="M11.7953 6.52727L15.961 6.52727C16.27 6.52725 16.576 6.58809 16.8615 6.70633C17.147 6.82456 17.4064 6.99788 17.6249 7.21637C17.8434 7.43487 18.0167 7.69426 18.1349 7.97974C18.2531 8.26522 18.314 8.5712 18.314 8.88019V11.9369C18.314 12.2459 18.2531 12.5518 18.1349 12.8373C18.0167 13.1228 17.8434 13.3822 17.6249 13.6007C17.4064 13.8192 17.147 13.9925 16.8615 14.1107C16.576 14.229 16.27 14.2898 15.961 14.2898H15.6129L15.6129 21.8742C15.6129 22.2584 15.4776 22.6304 15.2307 22.9249L15.1341 23.0307L14.4564 23.7084C14.3148 23.85 14.1261 23.9347 13.9261 23.9465C13.7262 23.9582 13.5288 23.8961 13.3716 23.772L13.2999 23.7084L12.6222 23.0307C12.3507 22.7591 12.1835 22.4007 12.1498 22.0182L12.1434 21.8742L12.1434 21.3954L13.2999 20.2389L12.1434 19.0824L13.2999 17.9259L12.1434 16.7693V14.2898L11.7953 14.2898C11.4863 14.2898 11.1803 14.229 10.8948 14.1107C10.6094 13.9925 10.35 13.8192 10.1315 13.6007C9.91297 13.3822 9.73966 13.1228 9.62142 12.8373C9.50318 12.5518 9.44234 12.2459 9.44236 11.9369L9.44236 8.88019C9.44234 8.5712 9.50318 8.26522 9.62142 7.97974C9.73966 7.69426 9.91297 7.43487 10.1315 7.21637C10.35 6.99788 10.6094 6.82456 10.8948 6.70633C11.1803 6.58809 11.4863 6.52725 11.7953 6.52727Z" stroke="#9678D3" stroke-linecap="round" stroke-linejoin="round"/>
    <path d="M13.8782 10.4087L13.8838 10.4031" stroke="#9678D3" stroke-linecap="round" stroke-linejoin="round"/>
  </g>
  <defs>
    <clipPath id="clip0_576_3086">
      <rect width="19.6267" height="19.6267" fill="white" transform="translate(0 13.8782) rotate(-45)"/>
    </clipPath>
  </defs>
</svg>