<svg xmlns="http://www.w3.org/2000/svg" width="54" height="54" viewBox="0 0 54 54" fill="none">
  <g clip-path="url(#clip0_576_3416)">
    <path d="M6.75 29.25C6.75 28.0565 7.22411 26.9119 8.06802 26.068C8.91193 25.2241 10.0565 24.75 11.25 24.75H33.75C34.9435 24.75 36.0881 25.2241 36.932 26.068C37.7759 26.9119 38.25 28.0565 38.25 29.25V42.75C38.25 43.9435 37.7759 45.0881 36.932 45.932C36.0881 46.7759 34.9435 47.25 33.75 47.25H11.25C10.0565 47.25 8.91193 46.7759 8.06802 45.932C7.22411 45.0881 6.75 43.9435 6.75 42.75V29.25Z" stroke="#9678D3" stroke-width="2" stroke-linecap="round" stroke-linejoin="round"/>
    <path d="M20.25 36C20.25 36.5967 20.4871 37.169 20.909 37.591C21.331 38.0129 21.9033 38.25 22.5 38.25C23.0967 38.25 23.669 38.0129 24.091 37.591C24.5129 37.169 24.75 36.5967 24.75 36C24.75 35.4033 24.5129 34.831 24.091 34.409C23.669 33.9871 23.0967 33.75 22.5 33.75C21.9033 33.75 21.331 33.9871 20.909 34.409C20.4871 34.831 20.25 35.4033 20.25 36Z" stroke="#9678D3" stroke-width="2" stroke-linecap="round" stroke-linejoin="round"/>
    <path d="M29.25 24.75V15.75C29.25 13.3631 30.1982 11.0739 31.886 9.38604C33.5739 7.69821 35.8631 6.75 38.25 6.75C40.6369 6.75 42.9261 7.69821 44.614 9.38604C46.3018 11.0739 47.25 13.3631 47.25 15.75V24.75" stroke="#9678D3" stroke-width="2" stroke-linecap="round" stroke-linejoin="round"/>
  </g>
  <defs>
    <clipPath id="clip0_576_3416">
      <rect width="54" height="54" fill="white"/>
    </clipPath>
  </defs>
</svg>