<svg width="23" height="22" viewBox="0 0 23 22" fill="none" xmlns="http://www.w3.org/2000/svg">
<g clip-path="url(#clip0_757_295)">
<path d="M13.6774 17.5303C14.4703 17.5303 14.8892 18.4263 14.3603 18.9898C14.0167 19.3568 13.5957 19.6504 13.125 19.8512C12.6542 20.0521 12.1443 20.1557 11.6286 20.1553C11.113 20.1557 10.6031 20.0521 10.1323 19.8512C9.66154 19.6504 9.24056 19.3568 8.89697 18.9898C8.39097 18.4508 8.75213 17.6081 9.47813 17.5364L9.57897 17.5311L13.6774 17.5303Z" fill="#D1D1D1"/>
<path d="M11.6287 2.65527C12.8735 2.65527 13.9259 3.4454 14.2641 4.52865L14.3063 4.67827L14.3136 4.7159C15.3241 5.26006 16.1852 6.02499 16.8264 6.94802C17.4675 7.87106 17.8705 8.92594 18.0023 10.0263L18.0279 10.2774L18.0454 10.5303V13.0949L18.0646 13.2139C18.1901 13.8586 18.5639 14.4351 19.1124 14.83L19.2654 14.9324L19.4139 15.019C20.2023 15.4451 19.9273 16.5643 19.0684 16.65L18.962 16.6553H4.29536C3.35303 16.6553 3.02395 15.4618 3.84345 15.019C4.19272 14.8303 4.4945 14.571 4.72761 14.2591C4.96071 13.9473 5.11948 13.5905 5.19278 13.2139L5.21203 13.0888L5.21295 10.49C5.26884 9.34717 5.61734 8.23481 6.22796 7.25031C6.83857 6.26581 7.69268 5.43918 8.71553 4.84277L8.94286 4.71502L8.95203 4.6774C9.0817 4.15417 9.3764 3.68151 9.79636 3.32319C10.2163 2.96488 10.7413 2.73817 11.3005 2.67365L11.4674 2.65877L11.6287 2.65527Z" fill="#D1D1D1"/>
</g>
<defs>
<clipPath id="clip0_757_295">
<rect width="22" height="21" fill="white" transform="translate(0.628662 0.905273)"/>
</clipPath>
</defs>
</svg>
