<svg width="42" height="40" viewBox="0 0 42 40" fill="none" xmlns="http://www.w3.org/2000/svg">
<path d="M23.4691 6.6929C23.1702 6.37149 22.6966 6.28261 22.3014 6.47376L7.11587 13.8197C6.73002 14.0063 6.50603 14.4181 6.559 14.8434L8.66268 31.7354C8.71643 32.167 9.04305 32.5144 9.47056 32.5946L25.9563 35.6885C26.3838 35.7687 26.8141 35.5634 27.0207 35.1806L35.1057 20.2008C35.3093 19.8236 35.2499 19.3586 34.958 19.0448L23.4691 6.6929Z" stroke="#9678D3" stroke-width="2" stroke-linejoin="round"/>
<circle cx="23.0791" cy="6.40963" r="2.69943" transform="rotate(10.6291 23.0791 6.40963)" fill="#9678D3" stroke="#9678D3"/>
<circle cx="35.3479" cy="19.6597" r="2.69943" transform="rotate(10.6291 35.3479 19.6597)" fill="#9678D3" stroke="#9678D3"/>
<circle cx="26.7241" cy="35.1767" r="2.69943" transform="rotate(10.6291 26.7241 35.1767)" fill="#9678D3" stroke="#9678D3"/>
<circle cx="8.33254" cy="31.7251" r="2.69943" transform="rotate(10.6291 8.33254 31.7251)" fill="#9678D3" stroke="#9678D3"/>
<circle cx="6.84108" cy="14.3098" r="2.69943" transform="rotate(10.6291 6.84108 14.3098)" fill="#9678D3" stroke="#9678D3"/>
</svg>
