<svg width="20" height="20" viewBox="0 0 20 20" fill="none" xmlns="http://www.w3.org/2000/svg">
<g clip-path="url(#clip0_503_3076)">
<path d="M2.5 16.6667H17.5V10C17.5 9.33696 17.2366 8.70107 16.7678 8.23223C16.2989 7.76339 15.663 7.5 15 7.5H5C4.33696 7.5 3.70107 7.76339 3.23223 8.23223C2.76339 8.70107 2.5 9.33696 2.5 10V16.6667Z" stroke="#9678D3" stroke-linecap="round" stroke-linejoin="round"/>
<path d="M2.5 12.3358C2.76 12.4483 3.045 12.5058 3.33333 12.5C3.65791 12.5068 3.97927 12.4345 4.26965 12.2893C4.56002 12.1441 4.81069 11.9304 5 11.6667C5.18931 11.4029 5.43998 11.1892 5.73035 11.044C6.02073 10.8988 6.34209 10.8265 6.66667 10.8333C6.99125 10.8265 7.3126 10.8988 7.60298 11.044C7.89336 11.1892 8.14402 11.4029 8.33333 11.6667C8.52264 11.9304 8.77331 12.1441 9.06369 12.2893C9.35406 12.4345 9.67542 12.5068 10 12.5C10.3246 12.5068 10.6459 12.4345 10.9363 12.2893C11.2267 12.1441 11.4774 11.9304 11.6667 11.6667C11.856 11.4029 12.1066 11.1892 12.397 11.044C12.6874 10.8988 13.0088 10.8265 13.3333 10.8333C13.6579 10.8265 13.9793 10.8988 14.2696 11.044C14.56 11.1892 14.8107 11.4029 15 11.6667C15.1893 11.9304 15.44 12.1441 15.7304 12.2893C16.0207 12.4345 16.3421 12.5068 16.6667 12.5C16.9583 12.5058 17.2433 12.4483 17.5 12.3358" stroke="#9678D3" stroke-linecap="round" stroke-linejoin="round"/>
<path d="M9.99991 3.33334L11.2207 4.69834C11.4386 4.93254 11.5844 5.22447 11.6409 5.5393C11.6974 5.85413 11.662 6.17856 11.5391 6.47386C11.4163 6.76916 11.211 7.02286 10.9478 7.20468C10.6847 7.3865 10.3748 7.48877 10.0551 7.49926C9.73542 7.50976 9.41948 7.42805 9.14497 7.26388C8.87046 7.09971 8.64899 6.86002 8.50699 6.57342C8.36499 6.28682 8.30846 5.96541 8.34415 5.64755C8.37983 5.3297 8.50622 5.02883 8.70824 4.78084L9.99991 3.33334Z" stroke="#9678D3" stroke-linecap="round" stroke-linejoin="round"/>
</g>
<defs>
<clipPath id="clip0_503_3076">
<rect width="20" height="20" fill="white"/>
</clipPath>
</defs>
</svg>
