<svg width="22" height="22" viewBox="0 0 22 22" fill="none" xmlns="http://www.w3.org/2000/svg">
<path d="M8.79535 3.52736L12.9611 3.52736C13.2701 3.52734 13.5761 3.58818 13.8616 3.70642C14.147 3.82466 14.4064 3.99797 14.6249 4.21646C14.8434 4.43496 15.0167 4.69435 15.135 4.97983C15.2532 5.26531 15.3141 5.57129 15.314 5.88029L15.314 8.93695C15.3141 9.24594 15.2532 9.55192 15.135 9.8374C15.0167 10.1229 14.8434 10.3823 14.6249 10.6008C14.4064 10.8193 14.147 10.9926 13.8616 11.1108C13.5761 11.2291 13.2701 11.2899 12.9611 11.2899H12.613L12.613 18.8743C12.613 19.2585 12.4776 19.6305 12.2308 19.925L12.1342 20.0308L11.4565 20.7085C11.3148 20.8501 11.1261 20.9348 10.9262 20.9466C10.7262 20.9583 10.5289 20.8962 10.3717 20.7721L10.3 20.7085L9.62225 20.0308C9.3508 19.7592 9.18356 19.4008 9.14982 19.0183L9.14346 18.8743L9.14346 18.3955L10.3 17.239L9.14346 16.0825L10.3 14.9259L9.14346 13.7694V11.2899L8.79535 11.2899C8.48635 11.2899 8.18038 11.2291 7.8949 11.1108C7.60942 10.9926 7.35002 10.8193 7.13153 10.6008C6.91303 10.3823 6.73972 10.1229 6.62148 9.8374C6.50324 9.55192 6.4424 9.24594 6.44242 8.93695L6.44242 5.88029C6.4424 5.57129 6.50324 5.26531 6.62148 4.97983C6.73972 4.69435 6.91303 4.43496 7.13153 4.21646C7.35002 3.99797 7.60942 3.82466 7.8949 3.70642C8.18038 3.58818 8.48635 3.52734 8.79535 3.52736Z" stroke="#9678D3" stroke-linecap="round" stroke-linejoin="round"/>
<path d="M10.8782 7.4086L10.8838 7.40299" stroke="#9678D3" stroke-linecap="round" stroke-linejoin="round"/>
</svg>
