<svg width="20" height="20" viewBox="0 0 20 20" fill="none" xmlns="http://www.w3.org/2000/svg">
<g clip-path="url(#clip0_503_3082)">
<path d="M13.7666 5.83334H4.99992C4.55789 5.83334 4.13397 6.00894 3.82141 6.3215C3.50885 6.63406 3.33325 7.05798 3.33325 7.50001V12.5C3.33325 12.942 3.50885 13.366 3.82141 13.6785C4.13397 13.9911 4.55789 14.1667 4.99992 14.1667H13.7666C13.8914 14.1666 14.0146 14.1385 14.1271 14.0844C14.2396 14.0303 14.3386 13.9516 14.4166 13.8542L17.4999 10L14.4166 6.14584C14.3386 6.0484 14.2396 5.96972 14.1271 5.91563C14.0146 5.86154 13.8914 5.83342 13.7666 5.83334Z" stroke="#9678D3" stroke-linecap="round" stroke-linejoin="round"/>
</g>
<defs>
<clipPath id="clip0_503_3082">
<rect width="20" height="20" fill="white"/>
</clipPath>
</defs>
</svg>
