<svg width="15" height="18" viewBox="0 0 15 18" fill="none" xmlns="http://www.w3.org/2000/svg">
<path d="M3.75708 2.77065L6.7199 0.618034L9.68273 2.77065L8.55103 6.25366H4.88878L3.75708 2.77065Z" stroke="#9678D3"/>
<mask id="path-2-inside-1_503_3020" fill="white">
<path fill-rule="evenodd" clip-rule="evenodd" d="M0.177835 15.0649C0.0614627 14.6625 0 14.2436 0 13.8133C0 10.7205 3.17579 8.21333 7.09333 8.21333C11.0109 8.21333 14.1867 10.7205 14.1867 13.8133C14.1867 13.9944 14.1758 14.1736 14.1545 14.3503C12.1769 16.1066 9.57308 17.1733 6.72011 17.1733C4.27795 17.1733 2.01835 16.3917 0.177835 15.0649Z"/>
</mask>
<path d="M0.177835 15.0649L-0.782805 15.3427L-0.686921 15.6743L-0.406931 15.8761L0.177835 15.0649ZM14.1545 14.3503L14.8185 15.098L15.1019 14.8462L15.1473 14.4699L14.1545 14.3503ZM1.13847 14.7871C1.04764 14.473 1 14.1476 1 13.8133H-1C-1 14.3396 -0.924712 14.852 -0.782805 15.3427L1.13847 14.7871ZM1 13.8133C1 11.4802 3.49484 9.21333 7.09333 9.21333V7.21333C2.85674 7.21333 -1 9.96085 -1 13.8133H1ZM7.09333 9.21333C10.6918 9.21333 13.1867 11.4802 13.1867 13.8133H15.1867C15.1867 9.96085 11.3299 7.21333 7.09333 7.21333V9.21333ZM13.1867 13.8133C13.1867 13.9543 13.1782 14.0935 13.1617 14.2306L15.1473 14.4699C15.1733 14.2537 15.1867 14.0346 15.1867 13.8133H13.1867ZM13.4904 13.6026C11.6888 15.2027 9.31901 16.1733 6.72011 16.1733V18.1733C9.82714 18.1733 12.665 17.0106 14.8185 15.098L13.4904 13.6026ZM6.72011 16.1733C4.49475 16.1733 2.43852 15.4618 0.7626 14.2537L-0.406931 15.8761C1.59818 17.3215 4.06115 18.1733 6.72011 18.1733V16.1733Z" fill="#9678D3" mask="url(#path-2-inside-1_503_3020)"/>
</svg>
