<svg xmlns="http://www.w3.org/2000/svg" width="54" height="54" viewBox="0 0 54 54" fill="none">
  <path d="M9 18C9 15.6131 9.94821 13.3239 11.636 11.636C13.3239 9.94821 15.6131 9 18 9H36C38.3869 9 40.6761 9.94821 42.364 11.636C44.0518 13.3239 45 15.6131 45 18V36C45 38.3869 44.0518 40.6761 42.364 42.364C40.6761 44.0518 38.3869 45 36 45H18C15.6131 45 13.3239 44.0518 11.636 42.364C9.94821 40.6761 9 38.3869 9 36V18Z" stroke="white" stroke-width="2" stroke-linecap="round" stroke-linejoin="round"/>
  <path d="M20.25 27C20.25 28.7902 20.9612 30.5071 22.227 31.773C23.4929 33.0388 25.2098 33.75 27 33.75C28.7902 33.75 30.5071 33.0388 31.773 31.773C33.0388 30.5071 33.75 28.7902 33.75 27C33.75 25.2098 33.0388 23.4929 31.773 22.227C30.5071 20.9612 28.7902 20.25 27 20.25C25.2098 20.25 23.4929 20.9612 22.227 22.227C20.9612 23.4929 20.25 25.2098 20.25 27Z" stroke="white" stroke-width="2" stroke-linecap="round" stroke-linejoin="round"/>
  <path d="M37.125 16.875V16.8975" stroke="white" stroke-width="2" stroke-linecap="round" stroke-linejoin="round"/>
</svg>