<svg xmlns="http://www.w3.org/2000/svg" width="54" height="54" viewBox="0 0 54 54" fill="none">
  <path d="M6.75 15.75C6.75 14.5565 7.22411 13.4119 8.06802 12.568C8.91193 11.7241 10.0565 11.25 11.25 11.25H42.75C43.9435 11.25 45.0881 11.7241 45.932 12.568C46.7759 13.4119 47.25 14.5565 47.25 15.75V38.25C47.25 39.4435 46.7759 40.5881 45.932 41.432C45.0881 42.2759 43.9435 42.75 42.75 42.75H11.25C10.0565 42.75 8.91193 42.2759 8.06802 41.432C7.22411 40.5881 6.75 39.4435 6.75 38.25V15.75Z" stroke="white" stroke-width="2" stroke-linecap="round" stroke-linejoin="round"/>
  <path d="M6.75 15.75L27 29.25L47.25 15.75" stroke="white" stroke-width="2" stroke-linecap="round" stroke-linejoin="round"/>
</svg>
