<svg width="16" height="16" viewBox="0 0 16 16" fill="none" xmlns="http://www.w3.org/2000/svg">
<path d="M14.7501 1.25L9.87505 14.75C9.84215 14.8218 9.78932 14.8827 9.72284 14.9253C9.65637 14.968 9.57904 14.9907 9.50005 14.9907C9.42107 14.9907 9.34374 14.968 9.27726 14.9253C9.21079 14.8827 9.15796 14.8218 9.12505 14.75L6.50005 9.5L1.25005 6.875C1.17825 6.84209 1.1174 6.78926 1.07474 6.72279C1.03208 6.65631 1.0094 6.57899 1.0094 6.5C1.0094 6.42101 1.03208 6.34369 1.07474 6.27721C1.1174 6.21074 1.17825 6.15791 1.25005 6.125L14.7501 1.25Z" stroke="#9678D3" stroke-linecap="round" stroke-linejoin="round"/>
</svg>
