<svg xmlns="http://www.w3.org/2000/svg" width="16" height="16" viewBox="0 0 16 16" fill="none">
  <path d="M14.7407 1.25L9.86565 14.75C9.83275 14.8218 9.77992 14.8827 9.71344 14.9253C9.64697 14.968 9.56964 14.9907 9.49065 14.9907C9.41167 14.9907 9.33434 14.968 9.26786 14.9253C9.20139 14.8827 9.14856 14.8218 9.11565 14.75L6.49065 9.5L1.24065 6.875C1.16885 6.84209 1.108 6.78926 1.06534 6.72279C1.02268 6.65631 1 6.57899 1 6.5C1 6.42101 1.02268 6.34369 1.06534 6.27721C1.108 6.21074 1.16885 6.15791 1.24065 6.125L14.7407 1.25Z" stroke="#9678D3" stroke-linecap="round" stroke-linejoin="round"/>
</svg>