<svg xmlns="http://www.w3.org/2000/svg" width="42" height="40" viewBox="0 0 42 40" fill="none">
  <path d="M24.1978 6.69293C23.8988 6.37152 23.4252 6.28264 23.0301 6.47379L7.84455 13.8197C7.4587 14.0063 7.23471 14.4181 7.28769 14.8435L9.39136 31.7354C9.44512 32.167 9.77173 32.5144 10.1992 32.5947L26.6849 35.6885C27.1125 35.7688 27.5428 35.5634 27.7494 35.1806L35.8344 20.2008C36.038 19.8237 35.9786 19.3587 35.6867 19.0448L24.1978 6.69293Z" stroke="#9678D3" stroke-width="2" stroke-linejoin="round"/>
  <circle cx="23.8078" cy="6.4096" r="2.69943" transform="rotate(10.6291 23.8078 6.4096)" fill="#9678D3" stroke="#9678D3"/>
  <circle cx="36.0766" cy="19.6597" r="2.69943" transform="rotate(10.6291 36.0766 19.6597)" fill="#9678D3" stroke="#9678D3"/>
  <circle cx="27.4528" cy="35.1766" r="2.69943" transform="rotate(10.6291 27.4528 35.1766)" fill="#9678D3" stroke="#9678D3"/>
  <circle cx="9.06127" cy="31.7251" r="2.69943" transform="rotate(10.6291 9.06127 31.7251)" fill="#9678D3" stroke="#9678D3"/>
  <circle cx="7.56975" cy="14.3098" r="2.69943" transform="rotate(10.6291 7.56975 14.3098)" fill="#9678D3" stroke="#9678D3"/>
</svg>